# xmcd
#
# Track frame offsets: 
#        150
#        4379
#        15995
#        33122
#        48132
#        58608
#        72023
#        90667
#        105080
#        117765
#        131146
#        151014
#        164195
#        179979
#        192496
#        200296
#
# Disc length: 2762 seconds
#
# Revision: 0
# Processed by: cddbd v1.5.1PL2 Copyright (c) Steve Scherf et al.
# Submitted via: ExactAudioCopy v0.95b3
#
DISCID=cd0ac810
DTITLE=D.Rangers - The Paw-Paw Patch
DYEAR=2006
DGENRE=Bluegrass
TTITLE0=The Paw-Paw Patch
TTITLE1=Love, Lust And Loneliness
TTITLE2=Trois Rivieres
TTITLE3=Settin' A Blaze
TTITLE4=Dirty Dodie
TTITLE5=Watching Her Dance
TTITLE6=Social Season
TTITLE7=Uncle Billy's Breakdown
TTITLE8=Crusty And Greasy
TTITLE9=Bad Insides
TTITLE10=New Years Blues
TTITLE11=Tight Knit Seams
TTITLE12=June Off Of Drinkin'
TTITLE13=Black Eddy's Quarter Mile
TTITLE14=Bootstomps
TTITLE15=The Paw-Paw Patch (reprise)
EXTD=
EXTT0=
EXTT1=
EXTT2=
EXTT3=
EXTT4=
EXTT5=
EXTT6=
EXTT7=
EXTT8=
EXTT9=
EXTT10=
EXTT11=
EXTT12=
EXTT13=
EXTT14=
EXTT15=
PLAYORDER=
